# xmcd CD database file
#
# Track frame offsets:
#	150
#	16196
#	38926
#	57873
#	58706
#	75560
#	96837
#	98054
#	110501
#	123853
#	142462
#	144079
#	164494
#	179224
#	201266
#
# Disc length: 2894 seconds
#
# Revision: 0
# Processed by: cddbd v1.5.2PL0 Copyright (c) Steve Scherf et al.
# Submitted via: CDex 1.51
#
DISCID=d50b4c0f
DTITLE=Various Artist - We Juke Up In Here
DYEAR=1900
DGENRE=Blues
TTITLE0=Big A and The All Stars - We Juke Up In Here
TTITLE1=Louis "Gearshifter" Youngblood - Rabbit In A Log
TTITLE2=Lil Poochie and Hezekiah Early - You Know I've Tried
TTITLE3=Red Paden - Dialogue - I Don't Have To Pretend
TTITLE4=Terry "Harmonica" Bean - Baby (Do Anything For Me)
TTITLE5=Jimmy "Duck" Holmes - Could've Been Married
TTITLE6=Red Paden - Dialog - I'm Moving At My Own Pace
TTITLE7=Elmo Williams and Hezekiah Early - Jug Of Wine
TTITLE8=Louis "Gearshifter" Youngblood - Get Rich And Marry You
TTITLE9=Big A and The All Stars - Call Me A Lover
TTITLE10=Red Paden - Dialogue - The Game Is For Life
TTITLE11=Lil Poochie and Hezekiah Early - Bring Your Fine Self Home
TTITLE12=Big George Brock - Down South
TTITLE13=Holmes, Bean and Vick - Someday (Get Over You)
TTITLE14=Youngblood, Gearshifter - Juke Joint Bucket
EXTD=
EXTT0=
EXTT1=
EXTT2=
EXTT3=
EXTT4=
EXTT5=
EXTT6=
EXTT7=
EXTT8=
EXTT9=
EXTT10=
EXTT11=
EXTT12=
EXTT13=
EXTT14=
PLAYORDER=
